<svg width="1510" height="450" viewBox="0 0 1510 450" fill="none" xmlns="http://www.w3.org/2000/svg">
<rect x="3.48438" width="173.952" height="331.967" fill="currentColor"/>
<rect x="527.661" width="173.952" height="331.967" fill="currentColor"/>
<rect x="991.534" width="173.952" height="331.967" fill="currentColor"/>
<rect x="177.437" y="138.424" width="350.224" height="29.5082" fill="currentColor"/>
<rect x="701.613" width="753.794" height="29.5082" fill="currentColor"/>
<path d="M10.4013 444V338.545H29.5046V383.189H78.37V338.545H97.5249V444H78.37V399.202H29.5046V444H10.4013ZM136.194 444H115.803L152.929 338.545H176.512L213.689 444H193.298L165.132 360.172H164.308L136.194 444ZM136.863 402.652H192.474V417.997H136.863V402.652ZM213.958 338.545H235.533L261.33 385.197H262.36L288.157 338.545H309.732L271.371 404.661V444H252.319V404.661L213.958 338.545ZM330.392 444H310.001L347.127 338.545H370.71L407.887 444H387.496L359.33 360.172H358.506L330.392 444ZM331.061 402.652H386.672V417.997H331.061V402.652ZM481.737 367.535C481.257 363.038 479.231 359.537 475.661 357.031C472.126 354.525 467.526 353.272 461.862 353.272C457.88 353.272 454.464 353.873 451.615 355.074C448.766 356.276 446.586 357.906 445.075 359.966C443.565 362.026 442.793 364.377 442.758 367.02C442.758 369.217 443.256 371.122 444.251 372.736C445.281 374.349 446.672 375.722 448.422 376.855C450.173 377.954 452.113 378.88 454.241 379.636C456.369 380.391 458.515 381.026 460.677 381.541L470.564 384.012C474.546 384.939 478.373 386.192 482.046 387.771C485.754 389.35 489.066 391.341 491.984 393.744C494.936 396.147 497.271 399.048 498.987 402.446C500.703 405.845 501.561 409.827 501.561 414.392C501.561 420.571 499.982 426.012 496.824 430.715C493.666 435.384 489.101 439.04 483.128 441.683C477.189 444.292 469.997 445.596 461.553 445.596C453.348 445.596 446.225 444.326 440.184 441.786C434.176 439.246 429.473 435.538 426.075 430.664C422.711 425.789 420.892 419.85 420.617 412.848H439.411C439.686 416.521 440.819 419.576 442.81 422.013C444.801 424.45 447.392 426.27 450.585 427.471C453.812 428.673 457.416 429.273 461.398 429.273C465.552 429.273 469.191 428.656 472.314 427.42C475.472 426.15 477.944 424.399 479.729 422.168C481.514 419.902 482.424 417.259 482.458 414.238C482.424 411.492 481.617 409.226 480.038 407.441C478.459 405.622 476.245 404.111 473.396 402.91C470.581 401.674 467.285 400.576 463.509 399.614L451.512 396.525C442.827 394.294 435.961 390.912 430.915 386.381C425.903 381.815 423.397 375.757 423.397 368.205C423.397 361.991 425.079 356.55 428.444 351.882C431.842 347.213 436.459 343.592 442.295 341.017C448.13 338.408 454.739 337.104 462.119 337.104C469.602 337.104 476.159 338.408 481.789 341.017C487.453 343.592 491.898 347.179 495.125 351.779C498.352 356.344 500.017 361.596 500.12 367.535H481.737ZM522.942 444V338.545H542.046V383.189H590.911V338.545H610.066V444H590.911V399.202H542.046V444H522.942ZM654.296 338.545V444H635.193V338.545H654.296ZM795.649 354.559V338.545H879.786V354.559H847.192V444H828.243V354.559H795.649ZM900.356 444V338.545H968.942V354.559H919.459V383.189H965.389V399.202H919.459V427.986H969.354V444H900.356ZM1083.05 374.126H1063.79C1063.24 370.968 1062.23 368.17 1060.75 365.733C1059.27 363.261 1057.44 361.167 1055.24 359.451C1053.04 357.735 1050.54 356.447 1047.72 355.589C1044.94 354.697 1041.94 354.25 1038.71 354.25C1032.98 354.25 1027.9 355.692 1023.47 358.576C1019.04 361.425 1015.58 365.613 1013.07 371.14C1010.56 376.632 1009.31 383.343 1009.31 391.273C1009.31 399.34 1010.56 406.137 1013.07 411.663C1015.61 417.156 1019.08 421.309 1023.47 424.124C1027.9 426.905 1032.96 428.295 1038.66 428.295C1041.82 428.295 1044.77 427.883 1047.52 427.059C1050.3 426.201 1052.79 424.948 1054.98 423.3C1057.21 421.653 1059.09 419.627 1060.6 417.224C1062.14 414.821 1063.21 412.075 1063.79 408.986L1083.05 409.089C1082.33 414.101 1080.76 418.804 1078.36 423.197C1075.99 427.591 1072.89 431.47 1069.04 434.835C1065.2 438.164 1060.7 440.773 1055.55 442.661C1050.4 444.515 1044.69 445.442 1038.4 445.442C1029.13 445.442 1020.86 443.296 1013.58 439.005C1006.31 434.714 1000.57 428.518 996.386 420.417C992.198 412.316 990.104 402.601 990.104 391.273C990.104 379.91 992.216 370.196 996.438 362.129C1000.66 354.027 1006.41 347.831 1013.69 343.54C1020.96 339.249 1029.2 337.104 1038.4 337.104C1044.27 337.104 1049.73 337.928 1054.78 339.575C1059.82 341.223 1064.32 343.643 1068.27 346.836C1072.22 349.994 1075.46 353.873 1078 358.473C1080.57 363.038 1082.26 368.256 1083.05 374.126ZM1104.89 444V338.545H1123.99V383.189H1172.86V338.545H1192.01V444H1172.86V399.202H1123.99V444H1104.89ZM1303.8 338.545V444H1286.81L1237.12 372.169H1236.24V444H1217.14V338.545H1234.24L1283.87 410.428H1284.8V338.545H1303.8ZM1423.2 391.273C1423.2 402.635 1421.07 412.367 1416.81 420.468C1412.59 428.535 1406.82 434.714 1399.51 439.005C1392.23 443.296 1383.98 445.442 1374.74 445.442C1365.51 445.442 1357.24 443.296 1349.92 439.005C1342.65 434.68 1336.88 428.484 1332.62 420.417C1328.4 412.316 1326.29 402.601 1326.29 391.273C1326.29 379.91 1328.4 370.196 1332.62 362.129C1336.88 354.027 1342.65 347.831 1349.92 343.54C1357.24 339.249 1365.51 337.104 1374.74 337.104C1383.98 337.104 1392.23 339.249 1399.51 343.54C1406.82 347.831 1412.59 354.027 1416.81 362.129C1421.07 370.196 1423.2 379.91 1423.2 391.273ZM1403.99 391.273C1403.99 383.274 1402.74 376.529 1400.23 371.037C1397.76 365.51 1394.33 361.339 1389.93 358.524C1385.54 355.675 1380.48 354.25 1374.74 354.25C1369.01 354.25 1363.95 355.675 1359.55 358.524C1355.16 361.339 1351.71 365.51 1349.2 371.037C1346.73 376.529 1345.5 383.274 1345.5 391.273C1345.5 399.271 1346.73 406.034 1349.2 411.56C1351.71 417.053 1355.16 421.224 1359.55 424.073C1363.95 426.888 1369.01 428.295 1374.74 428.295C1380.48 428.295 1385.54 426.888 1389.93 424.073C1394.33 421.224 1397.76 417.053 1400.23 411.56C1402.74 406.034 1403.99 399.271 1403.99 391.273Z" fill="currentColor"/>
</svg>